<svg width="1920" height="4439" viewBox="0 0 1920 4439" fill="none" xmlns="http://www.w3.org/2000/svg">
<rect width="1920" height="4439" fill="#1E1E1E"/>
<g clip-path="url(#clip0_0_1)">
<rect width="1920" height="4439" fill="url(#paint0_diamond_0_1)"/>
<rect width="1920" height="4439" fill="url(#paint1_radial_0_1)" fill-opacity="0.4"/>
<rect width="1920" height="4439" fill="black" fill-opacity="0.2"/>
<g style="mix-blend-mode:overlay" opacity="0.2">
<path d="M2321.14 1052.24C2327.71 1044.84 2334.29 1037.51 2340.94 1030.22V1019.92C2264.48 1103.95 2190.84 1197.36 2114.43 1281.57C2017.89 1388.01 1917.25 1472.92 1808.69 1512.18C1751.8 1320.45 1703.19 1124.51 1710.34 894.062C1716.7 688.428 1760.74 494.906 1806.08 309.994C1831.27 207.268 1857.87 104.801 1881.01 0H1875.22C1819.7 248.918 1744.48 485.907 1715.36 751.656C1693.85 948.031 1707.73 1139.09 1750.48 1322.11C1765.88 1388.09 1783.77 1451.63 1802.48 1514.36C1775.46 1523.67 1747.94 1530.21 1719.86 1533.45C1559.97 1551.94 1406.53 1487.23 1256 1397.79C1237.68 1252.76 1228.61 1103.61 1228.64 954.541C1228.67 623.722 1272.59 291.84 1356.38 0H1351.03C1285.88 227.626 1244.75 479.319 1229.78 736.588C1217.05 955.449 1223.39 1178.43 1250.05 1393.01C1250.1 1393.45 1250.14 1393.9 1250.2 1394.31C1127.98 1321.15 1007.61 1232.14 887.221 1158.54C761.191 1081.57 633.007 1027.75 501.418 1001.02C496.817 656.192 536.668 308.749 619.066 0H613.659C536.71 289.869 496.692 613.193 495.858 937.269C495.803 958.12 495.956 979.049 496.247 999.9C487.63 998.214 479.04 996.606 470.422 995.18C324.335 970.361 177.386 972.773 30.8824 979.775C-25.8565 982.472 -83.4433 984.417 -141.266 988.022C-143.282 954.8 -144.894 921.475 -145.951 887.864C-155.444 586.662 -129.674 281.959 -72.0733 0H-77.3553C-121.459 216.448 -146.951 446.201 -152.081 678.158C-154.388 782.181 -152.136 885.633 -146.076 988.307C-244 994.687 -342.619 1006.12 -438.986 1035.14V1045.62C-342.202 1016.65 -243.194 1005.19 -145.492 998.292C-138.639 1109.99 -127.242 1220.73 -112.077 1330.28C-80.9691 1555.1 -37.2682 1772.85 1.52606 1993.21C33.5651 2175.27 62.8519 2360.99 77.1826 2551.06C34.0377 2530.55 -8.59299 2506.14 -50.4731 2477.85C-114.843 2434.28 -176.016 2379.38 -237.147 2322.24C-295.832 2267.39 -356.574 2212.96 -422.195 2195.27C-427.838 2193.76 -433.426 2192.57 -439 2191.74V2200.43C-385.291 2209.66 -333.598 2246.25 -284.782 2288.76C-224.582 2341.17 -166.439 2400.8 -104.891 2447.95C-45.4552 2493.38 15.6483 2530.86 77.8776 2560.32C80.463 2595.72 82.5341 2631.28 83.9797 2666.96C88.8445 2786.73 86.5372 2907.09 75.8205 3025.56C66.7161 3126.1 52.4271 3224.58 36.7898 3322.22C-79.8155 3326.47 -196.977 3339.86 -312.484 3365.14C-354.267 3374.27 -396.731 3386.69 -439 3403.24V3411.54C-414.981 3402.02 -390.99 3394.01 -367.194 3387.34C-234.492 3350.2 -98.7748 3337.55 35.3304 3331.32C32.4809 3349.01 29.6036 3366.67 26.7125 3384.31C-10.5389 3610.33 -51.168 3839.48 -48.5132 4078.93C-47.2761 4192.14 -35.7254 4305.16 -9.84393 4408.07C-4.46472 4429.46 1.47049 4450.31 7.65588 4470.91C-84.9028 4476.22 -177.239 4490.41 -268.936 4520.42C-326.064 4539.11 -383.137 4564.37 -439 4597.05V4606.41C-402.652 4584.91 -365.804 4566.63 -328.761 4551.3C-217.173 4505.14 -103.807 4485.25 10.0605 4478.87C33.6207 4555.79 60.8921 4628.98 80.2128 4710.2C117.562 4867.11 126.541 5027.92 116.755 5186.82H121.44C126.096 5102.41 125.637 5016.15 118.715 4928.05C110.25 4820.16 90.9712 4718.35 62.1848 4623.66C47.2981 4574.7 31.1743 4527.16 16.3433 4478.53C143.638 4471.92 271.529 4481.9 398.24 4490.8C433.087 4493.26 468.017 4495.83 502.961 4497.31C529.829 4626.1 559.728 4753.18 578.757 4886.71C592.754 4984.85 600.941 5085.6 603.582 5186.82H608.683C607.988 5159.33 606.876 5131.97 605.347 5104.59C593.337 4889.95 549.386 4696.35 508.674 4497.57C591.864 4500.81 675.166 4497.41 757.272 4470.8C816.054 4451.77 873.071 4418.7 930.644 4390.09C991.01 4360.14 1051.81 4339.91 1114.22 4332.62C1206.93 4321.71 1300.68 4327.52 1393.8 4337.21C1415.75 4392.56 1436.58 4449.25 1454.35 4509.81C1517.74 4726.07 1530.84 4957.12 1514.57 5186.8H1520.3C1529.61 5045.48 1527.6 4901.57 1509.58 4755.82C1495.21 4639.77 1469.66 4531.33 1435.11 4431.43C1424.06 4399.51 1412.33 4368.52 1400.29 4337.89C1425.53 4340.59 1450.73 4343.54 1475.85 4346.47C1599.36 4361.05 1722.63 4383.71 1845.29 4414.29C1877.5 4422.36 1909.63 4430.94 1941.74 4440.07C1974.14 4683.18 1971.67 4937.02 1951.63 5186.8H1957.35C1976.9 4943.43 1979.36 4697.18 1949.18 4456.54C1948.55 4451.56 1947.91 4446.58 1947.23 4441.65C2079.38 4479.41 2210.73 4526.46 2340.99 4582.58V4573.84C2210.34 4517.59 2078.6 4470.44 1946.05 4432.63C1931.82 4328.55 1910.62 4229.64 1885.48 4132.85C1863.03 4046.36 1839.97 3960.28 1825.37 3868.42C1830.93 3864.51 1836.48 3860.54 1842.04 3856.34C1904.13 3809.53 1964.89 3759.5 2029.49 3725.37C2130.63 3671.87 2235.86 3646.11 2340.99 3647.72V3639.27C2272.72 3638.15 2204.39 3648.55 2137.02 3670.62C2075.15 3690.9 2014.2 3720.99 1955.18 3761.03C1910.93 3791.01 1868.13 3828.98 1824.14 3860.46C1821.11 3840.62 1818.44 3820.52 1816.32 3800.04C1794.95 3595.36 1818.52 3386.72 1850.23 3190.37C1911.26 2812.32 2013.19 2419.19 1944.22 2019.56C1940.64 1998.84 1936.71 1978.38 1932.51 1958.05C2047.01 1955.74 2161.75 1968.13 2275.2 1989.24C2297.09 1993.29 2319.05 1997.49 2341 2002V1993.84C2205.03 1964.56 2067.69 1946.27 1930.71 1949.31C1899.28 1800.08 1853.05 1660.84 1810.95 1519.57C1868.95 1499.58 1925.81 1467.42 1980.93 1422.01C2101.42 1322.65 2208.87 1178.69 2321.19 1052.16L2321.14 1052.24ZM795.732 1115.13C949.478 1196.98 1098.8 1312.98 1251.45 1403.88C1265.41 1512.93 1284.89 1618.75 1308.82 1721.58C1337.03 1842.74 1369.43 1961.26 1389.75 2088.24C1390.41 2092.33 1390.99 2096.46 1391.62 2100.61C1313.6 2147.39 1237.34 2204.16 1161.71 2266.12C1029.76 2374.22 898.73 2488.56 758.467 2554.64C754.839 2556.33 751.197 2557.88 747.542 2559.57C746.736 2537.06 745.568 2514.55 744.053 2492.14C726.734 2239.95 654.927 2028.64 599.231 1802.1C548.525 1595.87 517.431 1373.77 506.047 1147.99C503.739 1102.6 502.294 1057.09 501.571 1011.49C600.552 1031.1 698.809 1063.52 795.746 1115.13H795.732ZM747.792 2567.61C846.175 2521.83 941.096 2455.57 1034.61 2380.13C1153.04 2284.64 1269.74 2180.95 1392.65 2107.3C1457.95 2555.24 1290.15 2940.18 1225.97 3352.15C1200.09 3518.44 1196.1 3686.68 1224.81 3847.08C1119.19 3801.93 1016.34 3738.7 915.535 3662.51C806.922 3580.35 699.588 3491 587.138 3429.28C618.024 3347.45 649.104 3265.84 674.804 3178.23C729.375 2992.26 754.533 2778.84 747.778 2567.58L747.792 2567.61ZM44.6988 2223.95C-16.0294 1814.89 -114.051 1421.72 -140.683 997.981C-115.399 996.243 -90.1847 994.791 -65.0956 993.391C122.148 983.017 310.56 974.51 496.359 1010.53C499.417 1205.79 516.736 1400.46 548.803 1586.51C567.234 1693.39 591.155 1795.96 617.94 1896.43C649.493 2014.61 683.63 2130.95 707.83 2255.31C727.04 2354.12 738.507 2457.57 742.232 2561.93C526.257 2658.33 297.8 2654.41 82.4646 2553.58C74.1525 2442.29 60.767 2332.1 44.6988 2223.98V2223.95ZM89.9705 2882.94C93.7512 2775.73 90.7767 2668.75 83.1179 2562.76C268.889 2649.2 464.236 2663.88 653.093 2604.67C683.269 2595.2 713.042 2583.51 742.524 2569.99C747.083 2712.66 737.186 2856.85 712.778 2993.11C684.047 3153.65 632.924 3289.65 581.981 3426.5C562.522 3415.97 542.895 3406.27 523.102 3397.59C387.857 3338.48 248.442 3320.07 109.833 3320.74C87.2599 3320.85 64.645 3321.31 42.0162 3322.09C64.8674 3178.41 84.7024 3033.44 89.9843 2882.94H89.9705ZM469.588 4487.01C318.038 4478.22 165.627 4462.71 13.9247 4470.7C-1.68481 4418.88 -15.6819 4365.56 -25.0364 4307.6C-62.8578 4072.84 -37.2266 3821.51 -1.74039 3591.73C11.6868 3504.69 26.6569 3418.15 40.5567 3331.17C42.0301 3331.12 43.5034 3331.01 44.9768 3330.99C185.657 3324.81 327.24 3334.62 465.779 3383.76C504.115 3397.38 541.728 3414.78 578.84 3434.96C561.132 3482.57 543.479 3530.4 526.869 3579.46C496.845 3668.19 470.366 3762.35 456.049 3864.35C441.121 3970.84 441.524 4081.58 452.324 4189.34C462.652 4292.5 480.93 4391.05 501.14 4488.52C490.632 4488.13 480.124 4487.66 469.588 4487.01ZM1195.3 4319.42C1135.4 4319.86 1075.35 4325.8 1016.31 4345.02C957.623 4364.11 900.703 4397.38 843.214 4425.81C732.405 4480.63 620.484 4492.35 506.825 4488.7C503.586 4472.96 500.404 4457.11 497.248 4441.26C474.036 4324.53 453.964 4203.6 450.114 4078.57C446.542 3963.24 458.996 3850.58 484.071 3745.29C510.342 3635.04 546.87 3536.08 583.955 3437.73C679.21 3490.17 771.199 3560.69 863.424 3631.98C981.865 3723.61 1101.51 3804.5 1226.6 3857.09C1232.14 3886.6 1238.79 3915.86 1246.66 3944.75C1284.55 4084.12 1339.66 4202.3 1389.61 4326.94C1324.77 4321.58 1259.96 4318.88 1195.28 4319.4L1195.3 4319.42ZM1829.31 3923.51C1851.82 4039.57 1886.13 4146 1910.72 4260.47C1922.78 4316.65 1932.61 4373.57 1940.51 4431.2C1936 4429.9 1931.5 4428.58 1926.99 4427.34C1751.63 4378.5 1573.91 4342.76 1396.16 4327.57C1372.6 4268.36 1347.92 4210.73 1324.26 4151.73C1287.9 4061.09 1253.44 3965.83 1231.98 3859.35C1237.44 3861.58 1242.87 3863.83 1248.34 3866.01C1381 3917.99 1519.68 3947.24 1655.34 3935.52C1712.8 3930.54 1766.98 3908.36 1820.37 3872C1823.04 3889.35 1826.01 3906.52 1829.29 3923.54L1829.31 3923.51ZM1955.73 2145.06C1965.25 2245.81 1964.64 2349.06 1957.53 2450.28C1943.06 2656.74 1903.7 2853.59 1868.75 3050.19C1835.31 3238.35 1803.04 3433.04 1802.83 3633.17C1802.74 3711.31 1808.05 3788.96 1819.19 3864.07C1799.64 3877.79 1779.87 3890.18 1759.57 3899.91C1689.77 3933.23 1616.33 3931.39 1544.81 3926.08C1472 3920.66 1399.36 3906.86 1327.45 3884.84C1294.68 3874.8 1262.2 3862.82 1229.95 3849.26C1210.67 3748.89 1205.12 3641.89 1211.1 3536.08C1235.23 3109.14 1412.97 2759.68 1414.05 2323.28C1414.26 2247.55 1407.63 2175.17 1397.05 2104.7C1409.51 2097.37 1421.97 2090.16 1434.55 2083.46C1594.96 1997.93 1760.67 1962.48 1926.99 1958.33C1939.57 2018.84 1949.64 2081.1 1955.7 2145.08L1955.73 2145.06ZM1902.32 1852.88C1910.5 1884.6 1918.2 1916.84 1925.15 1949.57C1803.49 1952.76 1682.18 1972.85 1562.49 2017.07C1505.83 2037.98 1450.51 2065.57 1396.05 2097.96C1370.71 1933.33 1324.04 1779.18 1291.76 1618.49C1277.92 1549.42 1266.42 1478.86 1257.15 1407.3C1367.06 1472.27 1478.71 1523.88 1595.04 1540.01C1665.86 1549.86 1736.03 1544.37 1804.65 1521.8C1837.61 1631.77 1873.01 1739.32 1902.31 1852.86L1902.32 1852.88Z" fill="#FAD405"/>
</g>
</g>
<defs>
<radialGradient id="paint0_diamond_0_1" cx="0" cy="0" r="1" gradientUnits="userSpaceOnUse" gradientTransform="translate(960 2219.5) rotate(90) scale(2219.5 960)">
<stop stop-color="#AEF77E" stop-opacity="0.71"/>
<stop offset="1" stop-color="#269078"/>
</radialGradient>
<radialGradient id="paint1_radial_0_1" cx="0" cy="0" r="1" gradientUnits="userSpaceOnUse" gradientTransform="translate(960 2219.5) rotate(90) scale(3153.92 1364.16)">
<stop stop-color="#044422"/>
<stop offset="1" stop-color="#FFFF66" stop-opacity="0.18"/>
</radialGradient>
<clipPath id="clip0_0_1">
<rect width="1920" height="4439" fill="white"/>
</clipPath>
</defs>
</svg>
