<svg width="25" height="24" viewBox="0 0 25 24" fill="none" xmlns="http://www.w3.org/2000/svg">
<g clip-path="url(#clip0_1_48)">
<path d="M7.23862 21.8312C6.13703 20.5794 5.03549 19.2775 4.33446 17.7253C3.63347 16.073 3.43317 14.1702 3.78368 12.3677C4.1342 10.5651 4.93531 8.86265 6.08699 7.4106C5.98686 8.6624 6.43751 9.96424 7.2887 10.9156C6.78797 8.51219 7.58913 5.90845 9.19141 4.00575C10.7937 2.10305 12.9969 0.8512 15.3001 0C14.1485 1.20172 13.9983 3.10442 14.4489 4.70674C14.8996 6.30901 15.8509 7.71103 16.7021 9.16308C17.5533 10.6151 18.3545 12.1173 18.4046 13.7696C18.8552 12.9184 19.3559 12.0672 19.6564 11.1159C19.9568 10.1645 20.107 9.16308 19.8567 8.21171C20.758 9.3133 21.2587 10.4148 21.509 11.8169C21.7594 13.2189 21.7093 14.6709 21.5591 16.0729C21.3588 17.6252 20.9583 19.2275 20.1071 20.5293C19.1057 22.0815 17.5033 23.1831 15.7508 23.7839C12.6463 24.3347 9.59196 23.8841 7.23862 21.8312Z" fill="#ACF10E"/>
<path d="M11.0447 23.6837C15.1506 25.286 19.2064 20.429 16.9531 16.6737C16.9531 16.6236 16.9031 16.6236 16.9031 16.5735C17.1034 18.6265 16.6026 20.1286 15.6513 20.9798C16.152 19.7781 15.8015 18.3761 15.2006 17.1744C14.5998 16.0228 13.7486 14.9713 13.0976 13.8697C12.4467 12.7181 11.946 11.4162 12.2464 10.1143C11.0447 11.0156 10.1935 12.3675 9.84301 13.8196C9.4925 15.2717 9.6928 16.874 10.3437 18.2259C9.59267 17.6751 9.0419 16.7738 8.99181 15.8225C8.19065 16.7738 7.68997 18.0256 7.74001 19.2774C7.74006 21.2302 9.29224 22.9827 11.0447 23.6837Z" fill="#739C14"/>
</g>
<defs>
<clipPath id="clip0_1_48">
<rect width="24" height="24" fill="white" transform="translate(0.649902)"/>
</clipPath>
</defs>
</svg>
