<svg width="37" height="36" viewBox="0 0 37 36" fill="none" xmlns="http://www.w3.org/2000/svg">
<g clip-path="url(#clip0_2_220)">
<path d="M16.9803 24.3334C16.4603 24.3334 16.5536 24.1334 16.3669 23.6401L14.8469 18.6267L24.287 12.7334L25.3936 13.0267L24.4736 15.5334L16.9803 24.3334Z" fill="#FFFF66"/>
<path d="M16.9802 24.3329C17.3802 24.3329 17.5536 24.1463 17.7802 23.9329C18.1269 23.5996 22.5802 19.2663 22.5802 19.2663L19.8469 18.5996L17.3136 20.1996L16.9802 24.1996V24.3329Z" fill="#FFFF66"/>
<path d="M17.2468 20.2531L23.7001 25.0131C24.4335 25.4131 24.9668 25.2131 25.1535 24.3331L27.7801 11.9597C28.0468 10.8797 27.3668 10.3997 26.6601 10.7197L11.2468 16.6664C10.1935 17.0931 10.2068 17.6797 11.0602 17.9331L15.0202 19.1731L24.1801 13.3997C24.6068 13.1331 25.0068 13.2797 24.6868 13.5731L17.2468 20.2531Z" fill="#C3E70D"/>
</g>
<rect x="1.41357" y="0.5" width="35" height="35" rx="17.5" stroke="#FFFF66"/>
<defs>
<clipPath id="clip0_2_220">
<rect width="18" height="16" fill="white" transform="translate(9.91357 10)"/>
</clipPath>
</defs>
</svg>
