<svg width="16" height="16" viewBox="0 0 16 16" fill="none" xmlns="http://www.w3.org/2000/svg">
<path fill-rule="evenodd" clip-rule="evenodd" d="M8.80282 0.16281C8.60422 0.053832 8.38209 0 8.16128 0C7.94048 0 7.71835 0.053832 7.51974 0.16281L1.30145 3.55555C0.904252 3.77219 0.659912 4.17265 0.659912 4.60593V11.3927C0.659912 11.826 0.904252 12.2265 1.30145 12.4431L7.51833 15.8371C7.71693 15.9462 7.93907 16 8.15987 16C8.38209 16 8.60289 15.9448 8.80141 15.8371L12.2728 13.942L8.55285 4.29881C8.51818 4.21215 8.58618 4.12024 8.68478 4.12024H10.2609C10.3789 4.12024 10.4845 4.18983 10.5247 4.29486L13.9031 13.052L15.0184 12.4431C15.4155 12.2265 15.6599 11.826 15.6599 11.3927V4.60593C15.6599 4.17265 15.4155 3.77219 15.0184 3.55555L8.80282 0.16281ZM5.26465 5.64343C5.30912 5.52657 5.48412 5.52657 5.52851 5.64343L6.3478 7.7678C6.37007 7.82689 6.37007 7.89123 6.3478 7.95031L4.03851 13.9349L2.40827 13.0447L5.26465 5.64343ZM6.9074 9.2158L7.72676 11.3402C7.74896 11.3993 7.74896 11.4636 7.72676 11.5227L6.31724 15.178L4.68699 14.2879L6.64361 9.2158C6.68801 9.09897 6.863 9.09897 6.9074 9.2158ZM7.50305 4.12024H5.92693C5.82974 4.12024 5.76166 4.21215 5.795 4.29881L9.99421 15.1847L11.6245 14.2945L7.76691 4.29486C7.7266 4.18983 7.6211 4.12024 7.50305 4.12024Z" fill="#E4FFA5"/>
</svg>
