<svg width="37" height="36" viewBox="0 0 37 36" fill="none" xmlns="http://www.w3.org/2000/svg">
<g clip-path="url(#clip0_2_216)">
<path d="M27.0954 12.9255C26.4868 13.1925 25.8384 13.3694 25.1624 13.4553C25.8579 13.0401 26.3886 12.3876 26.6382 11.6011C25.9898 11.9877 25.2739 12.2608 24.5109 12.4132C23.8952 11.7576 23.0177 11.3516 22.0605 11.3516C20.2032 11.3516 18.7079 12.8591 18.7079 14.7071C18.7079 14.973 18.7304 15.2287 18.7857 15.4721C15.9967 15.3361 13.5288 13.9994 11.871 11.9632C11.5816 12.4653 11.4118 13.0401 11.4118 13.6588C11.4118 14.8207 12.0101 15.8505 12.9019 16.4468C12.3629 16.4366 11.8342 16.2801 11.3862 16.0336C11.3862 16.0438 11.3862 16.0571 11.3862 16.0704C11.3862 17.7007 12.5491 19.0547 14.074 19.3667C13.8009 19.4413 13.5033 19.4771 13.1944 19.4771C12.9796 19.4771 12.7628 19.4649 12.5593 19.4199C12.994 20.7484 14.2274 21.7251 15.694 21.7568C14.5526 22.6496 13.1034 23.1876 11.5345 23.1876C11.2594 23.1876 10.9955 23.1753 10.7317 23.1416C12.2177 24.0999 13.9788 24.647 15.878 24.647C22.0513 24.647 25.4263 19.5334 25.4263 15.1009C25.4263 14.9526 25.4211 14.8094 25.414 14.6672C26.0798 14.1947 26.6392 13.6046 27.0954 12.9255Z" fill="#FFFF66"/>
</g>
<rect x="1.41357" y="0.5" width="35" height="35" rx="17.5" stroke="#FFFF66"/>
<defs>
<clipPath id="clip0_2_216">
<rect width="20" height="20" fill="white" transform="translate(8.91357 8)"/>
</clipPath>
</defs>
</svg>
