<svg width="36" height="36" viewBox="0 0 36 36" fill="none" xmlns="http://www.w3.org/2000/svg">
<g clip-path="url(#clip0_2_216)">
<path d="M26.1818 12.9255C25.5732 13.1925 24.9248 13.3694 24.2488 13.4553C24.9443 13.0401 25.475 12.3876 25.7246 11.6011C25.0762 11.9877 24.3603 12.2608 23.5973 12.4132C22.9816 11.7576 22.1041 11.3516 21.1469 11.3516C19.2896 11.3516 17.7944 12.8591 17.7944 14.7071C17.7944 14.973 17.8169 15.2287 17.8721 15.4721C15.0831 15.3361 12.6153 13.9994 10.9574 11.9632C10.668 12.4653 10.4982 13.0401 10.4982 13.6588C10.4982 14.8207 11.0965 15.8505 11.9883 16.4468C11.4494 16.4366 10.9206 16.2801 10.4727 16.0336C10.4727 16.0438 10.4727 16.0571 10.4727 16.0704C10.4727 17.7007 11.6355 19.0547 13.1604 19.3667C12.8873 19.4413 12.5897 19.4771 12.2808 19.4771C12.0661 19.4771 11.8492 19.4649 11.6457 19.4199C12.0804 20.7484 13.3138 21.7251 14.7804 21.7568C13.639 22.6496 12.1898 23.1876 10.621 23.1876C10.3458 23.1876 10.082 23.1753 9.81812 23.1416C11.3041 24.0999 13.0653 24.647 14.9645 24.647C21.1377 24.647 24.5127 19.5334 24.5127 15.1009C24.5127 14.9526 24.5075 14.8094 24.5004 14.6672C25.1662 14.1947 25.7256 13.6046 26.1818 12.9255Z" fill="url(#paint0_linear_2_216)"/>
</g>
<rect x="0.5" y="0.5" width="35" height="35" rx="17.5" stroke="#81F8A6"/>
<defs>
<linearGradient id="paint0_linear_2_216" x1="9.81812" y1="16.4578" x2="26.6573" y2="17.1846" gradientUnits="userSpaceOnUse">
<stop stop-color="#AEF77E"/>
<stop offset="1" stop-color="#81F8A6"/>
</linearGradient>
<clipPath id="clip0_2_216">
<rect width="20" height="20" fill="white" transform="translate(8 8)"/>
</clipPath>
</defs>
</svg>
