<svg width="248" height="45" viewBox="0 0 248 45" fill="none" xmlns="http://www.w3.org/2000/svg">
<path d="M13.2864 41.46L13.1424 39.06C8.69443 38.708 5.27043 37.796 2.87043 36.324C1.81443 35.716 1.07843 35.188 0.662426 34.74C0.278426 34.26 0.0864258 33.684 0.0864258 33.012C0.0864258 32.34 0.118426 31.78 0.182426 31.332C0.246426 30.884 0.358426 30.388 0.518426 29.844C0.678426 29.3 0.934426 28.852 1.28643 28.5C1.67043 28.148 2.07043 27.988 2.48643 28.02C2.93443 28.02 4.10243 28.356 5.99043 29.028C7.91043 29.7 9.41443 30.036 10.5024 30.036C12.1664 30.036 12.9984 29.428 12.9984 28.212C12.9984 27.476 12.5984 26.804 11.7984 26.196C10.9984 25.556 10.0224 24.948 8.87043 24.372C7.71843 23.796 6.56643 23.14 5.41443 22.404C4.26243 21.636 3.28643 20.596 2.48643 19.284C1.68643 17.972 1.28643 16.436 1.28643 14.676C1.28643 12.244 2.35843 10.244 4.50243 8.676C6.67843 7.108 9.57443 6.1 13.1904 5.652C13.1904 4.884 13.2224 4.116 13.2864 3.348C13.3504 2.58 13.5744 1.988 13.9584 1.572C14.3424 1.156 15.0144 0.947998 15.9744 0.947998H18.7584C19.7184 0.947998 20.3904 1.156 20.7744 1.572C21.2864 2.116 21.5424 3.428 21.5424 5.508C25.0944 5.764 27.8944 6.34 29.9424 7.236C31.9904 8.1 33.0144 9.172 33.0144 10.452C33.0144 11.7 32.7104 12.756 32.1024 13.62C31.5264 14.484 30.9344 14.916 30.3264 14.916C30.1024 14.916 29.3504 14.692 28.0704 14.244C26.8224 13.796 25.6864 13.572 24.6624 13.572C22.6784 13.572 21.6864 14.308 21.6864 15.78C21.6864 16.484 22.1664 17.14 23.1264 17.748C24.0864 18.356 25.2384 18.932 26.5824 19.476C27.9584 20.02 29.3184 20.644 30.6624 21.348C32.0384 22.02 33.2064 22.964 34.1664 24.18C35.1264 25.396 35.6064 26.788 35.6064 28.356C35.6064 31.364 34.2784 33.732 31.6224 35.46C28.9984 37.156 25.6384 38.276 21.5424 38.82C21.4784 40.292 21.4304 41.332 21.3984 41.94C21.3344 43.348 20.4544 44.052 18.7584 44.052H15.9744C15.0144 44.052 14.3424 43.844 13.9584 43.428C13.5744 43.012 13.3504 42.356 13.2864 41.46Z" fill="#FFFF66"/>
<path d="M59.7309 32.868V36.9C59.7309 38.276 58.7869 39.012 56.8989 39.108C55.0429 39.204 53.0109 39.252 50.8029 39.252C48.6269 39.252 46.1309 39.172 43.3149 39.012C42.3869 38.948 41.6349 38.628 41.0589 38.052C40.5149 37.476 40.1949 36.82 40.0989 36.084C39.8429 33.268 39.7149 28.852 39.7149 22.836C39.7149 16.788 39.8109 12.388 40.0029 9.636C40.1949 6.884 41.5869 5.492 44.1789 5.46C47.1549 5.396 50.3389 5.364 53.7309 5.364C57.1229 5.364 60.7869 5.412 64.7229 5.508C68.6909 5.604 71.9229 7.092 74.4189 9.972C76.9149 12.852 78.1629 16.02 78.1629 19.476C78.1629 22.932 77.0589 25.78 74.8509 28.02C72.6429 30.26 69.4109 31.38 65.1549 31.38H61.4109C60.9949 31.38 60.6109 31.524 60.2589 31.812C59.9069 32.1 59.7309 32.452 59.7309 32.868ZM59.6829 15.492L59.7789 24.372C59.7789 24.98 60.1149 25.284 60.7869 25.284C62.7709 25.284 64.3229 24.74 65.4429 23.652C66.5949 22.532 67.1709 21.22 67.1709 19.716C67.1709 18.212 66.6269 16.916 65.5389 15.828C64.4829 14.74 62.9149 14.196 60.8349 14.196C60.0669 14.196 59.6829 14.628 59.6829 15.492Z" fill="#FFFF66"/>
<path d="M102.622 32.868V36.9C102.622 38.276 101.678 39.012 99.7896 39.108C97.9335 39.204 95.9016 39.252 93.6936 39.252C91.5175 39.252 89.0216 39.172 86.2056 39.012C85.2775 38.948 84.5256 38.628 83.9496 38.052C83.4056 37.476 83.0855 36.82 82.9895 36.084C82.7336 33.268 82.6056 28.852 82.6056 22.836C82.6056 16.788 82.7016 12.388 82.8936 9.636C83.0856 6.884 84.4775 5.492 87.0695 5.46C90.0455 5.396 93.2296 5.364 96.6216 5.364C100.014 5.364 103.678 5.412 107.614 5.508C111.582 5.604 114.814 7.092 117.31 9.972C119.806 12.852 121.054 16.02 121.054 19.476C121.054 22.932 119.95 25.78 117.742 28.02C115.534 30.26 112.302 31.38 108.046 31.38H104.302C103.886 31.38 103.502 31.524 103.15 31.812C102.798 32.1 102.622 32.452 102.622 32.868ZM102.574 15.492L102.67 24.372C102.67 24.98 103.006 25.284 103.678 25.284C105.662 25.284 107.214 24.74 108.334 23.652C109.486 22.532 110.062 21.22 110.062 19.716C110.062 18.212 109.518 16.916 108.43 15.828C107.374 14.74 105.806 14.196 103.726 14.196C102.958 14.196 102.574 14.628 102.574 15.492Z" fill="#FFFF66"/>
<path d="M140.568 40.02C137.816 40.02 135.24 39.716 132.84 39.108C130.472 38.5 128.792 37.892 127.8 37.284C126.84 36.676 126.2 36.244 125.88 35.988C125.048 35.316 124.632 34.388 124.632 33.204C124.632 32.276 124.744 31.396 124.968 30.564C125.384 28.996 126.136 28.212 127.224 28.212C127.576 28.244 128.696 28.612 130.584 29.316C132.504 30.02 134.008 30.372 135.096 30.372C136.728 30.372 137.544 29.732 137.544 28.452C137.544 27.684 137.144 26.98 136.344 26.34C135.544 25.668 134.568 25.028 133.416 24.42C132.296 23.812 131.16 23.124 130.008 22.356C128.856 21.556 127.88 20.468 127.08 19.092C126.28 17.684 125.88 16.052 125.88 14.196C125.88 11.124 127.384 8.724 130.392 6.996C133.4 5.236 137.288 4.356 142.056 4.356C146.824 4.356 150.6 4.852 153.384 5.844C156.2 6.804 157.608 8.148 157.608 9.876C157.608 11.124 157.32 12.228 156.744 13.188C156.168 14.116 155.56 14.58 154.92 14.58C154.696 14.58 153.944 14.34 152.664 13.86C151.416 13.348 150.28 13.092 149.256 13.092C147.24 13.092 146.232 13.876 146.232 15.444C146.232 16.212 146.712 16.916 147.672 17.556C148.632 18.196 149.784 18.82 151.128 19.428C152.504 20.004 153.88 20.66 155.256 21.396C156.632 22.132 157.8 23.14 158.76 24.42C159.72 25.7 160.2 27.252 160.2 29.076C160.2 30.9 159.608 32.564 158.424 34.068C157.272 35.572 155.736 36.74 153.816 37.572C150.008 39.204 145.592 40.02 140.568 40.02Z" fill="#FFFF66"/>
<path d="M183.125 10.5L183.029 14.868V24.132C183.029 25.476 183.445 26.516 184.277 27.252C185.109 27.988 186.085 28.356 187.205 28.356C188.325 28.356 189.285 27.988 190.085 27.252C190.917 26.516 191.333 25.476 191.333 24.132V9.828C191.333 8.324 191.525 7.22 191.909 6.516C192.325 5.812 193.205 5.46 194.549 5.46H198.965C199.989 5.46 200.693 5.764 201.077 6.372C201.813 7.46 202.181 11.668 202.181 18.996C202.181 21.396 202.149 23.236 202.085 24.516C201.989 27.108 201.381 29.428 200.261 31.476C199.173 33.492 197.765 35.108 196.037 36.324C192.549 38.788 188.597 40.02 184.181 40.02C178.357 40.02 173.541 38.66 169.733 35.94C167.813 34.564 166.293 32.74 165.173 30.468C164.085 28.164 163.525 25.492 163.493 22.452C163.461 20.948 163.445 18.74 163.445 15.828C163.445 12.884 163.477 10.772 163.541 9.492C163.637 8.18 163.893 7.188 164.309 6.516C164.757 5.812 165.637 5.46 166.949 5.46H179.765C181.045 5.46 181.893 5.796 182.309 6.468C182.853 7.332 183.125 8.676 183.125 10.5Z" fill="#FFFF66"/>
<path d="M239.513 5.46H244.649C245.737 5.46 246.489 5.636 246.905 5.988C247.353 6.34 247.593 7.06 247.625 8.148C247.817 13.012 247.913 18.244 247.913 23.844C247.913 29.444 247.801 33.54 247.577 36.132C247.513 36.868 247.225 37.54 246.713 38.148C246.233 38.756 245.593 39.06 244.793 39.06H236.777C235.657 39.06 234.425 38.66 233.081 37.86C225.657 33.476 220.985 30.804 219.065 29.844C218.681 29.684 218.361 29.748 218.105 30.036C217.881 30.292 217.769 30.788 217.769 31.524V36.852C217.769 37.46 217.545 37.94 217.097 38.292C216.425 38.836 214.697 39.108 211.913 39.108C211.145 39.108 210.393 39.092 209.657 39.06C208.921 38.996 208.313 38.66 207.833 38.052C207.385 37.444 207.145 36.788 207.113 36.084C207.017 32.244 206.969 27.428 206.969 21.636C206.969 15.812 206.985 12.02 207.017 10.26C207.049 8.5 207.257 7.268 207.641 6.564C208.025 5.828 208.761 5.46 209.849 5.46H215.129C216.217 5.46 217.337 5.764 218.489 6.372C228.409 11.524 234.201 14.516 235.865 15.348C236.409 15.604 236.841 15.636 237.161 15.444C237.481 15.252 237.641 14.9 237.641 14.388V7.668C237.641 7.028 237.801 6.5 238.121 6.084C238.473 5.668 238.937 5.46 239.513 5.46Z" fill="#FFFF66"/>
</svg>
