<svg width="142" height="39" viewBox="0 0 142 39" fill="none" xmlns="http://www.w3.org/2000/svg">
<path d="M19.1429 25.5394V29.2834C19.1429 30.5611 18.2401 31.2446 16.4344 31.3337C14.6594 31.4229 12.716 31.4674 10.6043 31.4674C8.52325 31.4674 6.13613 31.3931 3.44296 31.2446C2.55544 31.1851 1.83625 30.888 1.28537 30.3531C0.765103 29.8183 0.459062 29.2091 0.367249 28.5257C0.122416 25.9109 0 21.8103 0 16.224C0 10.608 0.0918124 6.52229 0.275437 3.96686C0.459062 1.41143 1.79034 0.118856 4.26927 0.0891417C7.11546 0.0297139 10.1606 0 13.4046 0C16.6486 0 20.1528 0.0445709 23.9171 0.133713C27.712 0.222856 30.803 1.60457 33.1902 4.27886C35.5773 6.95314 36.7709 9.89486 36.7709 13.104C36.7709 16.3131 35.715 18.9577 33.6033 21.0377C31.4916 23.1177 28.4006 24.1577 24.3303 24.1577H20.7496C20.3517 24.1577 19.9845 24.2914 19.6478 24.5589C19.3112 24.8263 19.1429 25.1531 19.1429 25.5394ZM19.097 9.40457L19.1888 17.6503C19.1888 18.2149 19.5101 18.4971 20.1528 18.4971C22.0503 18.4971 23.5346 17.992 24.6057 16.9817C25.7075 15.9417 26.2583 14.7234 26.2583 13.3269C26.2583 11.9303 25.7381 10.7269 24.6975 9.71657C23.6876 8.70629 22.188 8.20114 20.1987 8.20114C19.4642 8.20114 19.097 8.60229 19.097 9.40457Z" fill="#ACF10E"/>
<path d="M47.5384 9.984C48.9461 9.30057 50.3845 8.81028 51.8535 8.51314C53.3531 8.216 55.1894 8.06743 57.3623 8.06743C59.5658 8.06743 61.6622 8.33486 63.6514 8.86971C65.6407 9.37486 67.125 10.0731 68.1043 10.9646C69.8182 12.5989 70.6751 14.5154 70.6751 16.7143C70.6751 20.1611 67.6759 21.8846 61.6775 21.8846C59.5658 21.8846 57.3776 21.6914 55.1129 21.3051C55.2047 23.2663 55.5719 24.648 56.2146 25.4503C56.8879 26.2526 58.0662 26.6537 59.7494 26.6537C61.4326 26.6537 62.8251 26.4754 63.9269 26.1189C65.0286 25.7623 65.9161 25.4057 66.5894 25.0491C67.2627 24.6629 67.8289 24.4697 68.2879 24.4697C68.7776 24.4697 69.1908 24.6777 69.5274 25.0937C70.0477 25.6286 70.3078 26.3714 70.3078 27.3223C70.3078 28.2434 70.1089 28.8823 69.711 29.2389C69.3438 29.5657 68.747 29.8926 67.9207 30.2194C65.0133 31.408 60.8818 32.0023 55.526 32.0023C51.0884 32.0023 47.4312 30.9771 44.5545 28.9269C41.7083 26.8469 40.2852 24.0537 40.2852 20.5474C40.2852 18.8537 40.6065 17.3086 41.2492 15.912C41.8919 14.4857 42.7488 13.312 43.82 12.3909C44.8911 11.44 46.1306 10.6377 47.5384 9.984ZM58.1886 13.1486C56.3217 13.1486 55.3118 14.6194 55.1588 17.5611C56.6278 17.68 57.3929 17.7394 57.4541 17.7394C59.474 17.7394 60.4839 17.0857 60.4839 15.7783C60.4839 14.0251 59.7188 13.1486 58.1886 13.1486Z" fill="#ACF10E"/>
<path d="M92.6727 24.5143C94.4784 24.5143 95.3812 23.0731 95.3812 20.1909C95.3812 17.2789 94.4784 15.8229 92.6727 15.8229C91.9688 15.8229 91.3262 16.0606 90.7447 16.536C90.1938 16.9817 89.9184 17.6206 89.9184 18.4526V21.8846C89.9184 22.7166 90.1938 23.3703 90.7447 23.8457C91.3262 24.2914 91.9688 24.5143 92.6727 24.5143ZM77.9828 8.60229L86.4295 8.64686C87.164 8.64686 87.8067 8.86971 88.3576 9.31543C88.9084 9.73143 89.1992 10.3406 89.2298 11.1429C90.4233 10.1029 91.8617 9.31543 93.545 8.78057C95.2588 8.24572 96.942 7.97829 98.5946 7.97829C101.471 7.97829 103.828 8.97371 105.664 10.9646C107.5 12.9257 108.419 15.912 108.419 19.9234C108.419 22.2114 108.097 24.1726 107.455 25.8069C106.812 27.4114 105.94 28.6446 104.838 29.5063C102.726 31.0811 100.201 31.8686 97.2634 31.8686C94.356 31.8686 92.076 30.9474 90.4233 29.1051C90.2091 28.8971 90.0408 28.8377 89.9184 28.9269C89.8266 29.016 89.7806 29.1497 89.7806 29.328C89.7806 31.4377 89.6888 33.7406 89.5052 36.2366C89.444 37.2171 89.2451 37.9154 88.9084 38.3314C88.5718 38.7771 87.8832 39 86.8427 39H78.0287C77.0187 39 76.3301 38.7623 75.9629 38.2869C75.6262 37.8114 75.4426 37.0834 75.412 36.1029C75.3508 33.28 75.3202 29.6697 75.3202 25.272L75.412 10.6971C75.412 10.1029 75.6874 9.61257 76.2383 9.22628C76.8198 8.81029 77.4013 8.60229 77.9828 8.60229Z" fill="#ACF10E"/>
<path d="M118.863 9.984C120.271 9.30057 121.709 8.81028 123.178 8.51314C124.678 8.216 126.514 8.06743 128.687 8.06743C130.891 8.06743 132.987 8.33486 134.976 8.86971C136.966 9.37486 138.45 10.0731 139.429 10.9646C141.143 12.5989 142 14.5154 142 16.7143C142 20.1611 139.001 21.8846 133.002 21.8846C130.891 21.8846 128.703 21.6914 126.438 21.3051C126.53 23.2663 126.897 24.648 127.54 25.4503C128.213 26.2526 129.391 26.6537 131.074 26.6537C132.758 26.6537 134.15 26.4754 135.252 26.1189C136.354 25.7623 137.241 25.4057 137.914 25.0491C138.588 24.6629 139.154 24.4697 139.613 24.4697C140.103 24.4697 140.516 24.6777 140.852 25.0937C141.373 25.6286 141.633 26.3714 141.633 27.3223C141.633 28.2434 141.434 28.8823 141.036 29.2389C140.669 29.5657 140.072 29.8926 139.246 30.2194C136.338 31.408 132.207 32.0023 126.851 32.0023C122.413 32.0023 118.756 30.9771 115.879 28.9269C113.033 26.8469 111.61 24.0537 111.61 20.5474C111.61 18.8537 111.931 17.3086 112.574 15.912C113.217 14.4857 114.074 13.312 115.145 12.3909C116.216 11.44 117.455 10.6377 118.863 9.984ZM129.514 13.1486C127.647 13.1486 126.637 14.6194 126.484 17.5611C127.953 17.68 128.718 17.7394 128.779 17.7394C130.799 17.7394 131.809 17.0857 131.809 15.7783C131.809 14.0251 131.044 13.1486 129.514 13.1486Z" fill="#ACF10E"/>
</svg>
