<svg width="386" height="303" viewBox="0 0 386 303" fill="none" xmlns="http://www.w3.org/2000/svg">
<path d="M270.375 142.784C267.299 142.784 264.708 140.385 264.501 137.257C264.284 133.995 266.741 131.175 269.99 130.959C315.859 127.888 320.915 120.285 335.92 97.7238L336.799 96.4034C338.608 93.685 342.267 92.9576 344.973 94.7732C347.678 96.5908 348.406 100.267 346.596 102.983L345.722 104.299C329.732 128.34 322.436 139.312 270.773 142.772C270.639 142.78 270.507 142.786 270.375 142.786V142.784Z" fill="black"/>
<path d="M333.916 89.1471C333.212 86.6916 334.173 77.2713 334.528 74.7404C334.952 71.7226 335.47 68.6293 337.036 66.019C338.602 63.4087 341.025 61.6563 343.806 62.0923C343.167 56.2176 343.212 49.3342 343.549 43.435C343.869 37.8313 347.44 36.466 350.725 38.7218C354.647 41.4156 353.429 55.1824 353.649 62.3246C356.53 56.9328 364.862 46.0555 368.226 44.676C370.744 43.6429 375.033 45.54 372.951 51.4901C371.265 56.3093 367.037 61.3241 364.051 66.6527C372.527 65.6216 373.883 71.3028 369.253 75.1439C371.663 74.7567 374.702 75.5127 375.272 77.8337C375.841 80.1546 374.591 82.6182 372.769 84.1567C370.947 85.6952 368.636 86.496 366.382 87.2642C366.364 90.7385 361.993 98.2393 358.938 99.8654C355.88 101.492 335.241 93.7564 333.918 89.145L333.916 89.1471Z" fill="white"/>
<path d="M333.348 89.3101C332.599 86.7018 333.595 77.1327 333.944 74.6569C334.392 71.4678 334.926 68.3828 336.531 65.7113C338.233 62.8768 340.611 61.3506 343.145 61.4341C342.648 56.3684 342.581 50.0005 342.96 43.3983C343.129 40.464 344.184 38.3713 345.937 37.5073C347.442 36.7656 349.307 37.0284 351.058 38.2307C354.401 40.5272 354.31 49.2873 354.231 57.0164C354.219 58.1167 354.209 59.1825 354.209 60.1748C357.637 54.5895 364.692 45.4829 368.003 44.1258C369.555 43.49 371.487 43.8568 372.706 45.0204C373.582 45.8579 374.853 47.8385 373.507 51.6857C372.43 54.7647 370.389 57.8437 368.23 61.104C367.181 62.6873 366.102 64.3134 365.13 65.9619C368.717 65.7623 371.245 66.8158 372.148 68.9248C372.868 70.6079 372.335 72.6701 370.797 74.4592C373.089 74.5428 375.327 75.5698 375.847 77.691C376.419 80.0263 375.362 82.7425 373.15 84.6091C371.33 86.1455 369.034 86.981 366.954 87.6962C366.619 91.5414 362.269 98.7651 359.216 100.391C357.039 101.549 349.114 98.926 344.32 96.8822C344.265 96.8578 344.208 96.8354 344.151 96.8089C341.049 95.4742 334.192 92.2301 333.354 89.3121L333.348 89.3101ZM369.344 75.7287C369.082 75.7715 368.823 75.6309 368.713 75.3884C368.604 75.1459 368.67 74.8586 368.875 74.6895C370.87 73.0328 371.728 70.9564 371.06 69.3955C370.298 67.6125 367.703 66.8076 364.118 67.2437C363.897 67.2702 363.679 67.1703 363.558 66.9849C363.434 66.7994 363.424 66.559 363.533 66.3654C364.665 64.346 365.976 62.3654 367.246 60.452C369.364 57.2548 371.365 54.2369 372.393 51.2965C373.227 48.9124 373.051 46.9888 371.892 45.8823C371.002 45.0305 369.586 44.7616 368.447 45.2262C365.274 46.5262 356.992 57.3159 354.166 62.6058C354.04 62.8422 353.772 62.9645 353.513 62.9013C353.251 62.8402 353.066 62.6099 353.058 62.343C353.012 60.8065 353.03 58.9604 353.052 57.0082C353.121 50.3164 353.216 41.1507 350.392 39.2108C349.004 38.2572 347.568 38.0229 346.456 38.573C345.103 39.2414 344.281 40.9796 344.137 43.4697C343.744 50.3245 343.835 56.9145 344.391 62.0292C344.411 62.2126 344.344 62.3939 344.212 62.5223C344.078 62.6486 343.896 62.7077 343.713 62.6792C341.4 62.3165 339.148 63.6451 337.539 66.3267C336.05 68.8066 335.541 71.7633 335.111 74.826C334.685 77.8479 333.847 86.7792 334.48 88.9861C334.961 90.659 338.982 93.3183 344.774 95.7941C351.599 98.706 357.463 99.9816 358.658 99.3479C361.506 97.8338 365.771 90.6061 365.789 87.2663C365.789 87.0136 365.952 86.7894 366.189 86.7079C368.37 85.9641 370.624 85.1939 372.387 83.7064C373.808 82.5082 375.264 80.2891 374.698 77.9783C374.485 77.1103 373.808 76.4867 372.915 76.1016C371.882 75.6574 370.563 75.5351 369.344 75.7308V75.7287Z" fill="black"/>
<path d="M344.141 73.3364C346.525 74.3614 349.175 74.7669 351.754 74.4633C353.413 74.2677 355.661 73.6584 356.958 71.8611C358.301 69.9966 358.191 67.1377 356.7 65.0633C354.403 61.8682 349.556 61.7154 346.018 61.6033C345.089 61.5748 344.285 61.5483 343.677 61.4708C343.354 61.4301 343.058 61.6583 343.017 61.9823C342.977 62.3063 343.208 62.6038 343.527 62.6446C344.192 62.7301 345.022 62.7566 345.981 62.7872C349.276 62.8911 353.789 63.0338 355.744 65.7582C356.948 67.4311 357.055 69.7073 356.002 71.1703C354.957 72.6192 353.042 73.1225 351.616 73.2896C348.229 73.6869 344.707 72.7577 341.954 70.7363C341.692 70.5448 341.323 70.6018 341.13 70.8647C340.938 71.1296 340.996 71.4984 341.258 71.692C342.153 72.3481 343.123 72.8983 344.139 73.3364H344.141Z" fill="black"/>
<path d="M357.345 69.8316C357.485 69.8927 357.65 69.8988 357.802 69.8357C359.857 68.99 360.593 68.7088 362.559 67.9609L364.641 67.1662C364.945 67.0501 365.098 66.7078 364.982 66.4021C364.866 66.0964 364.525 65.9436 364.221 66.0598L362.142 66.8524C360.163 67.6044 359.425 67.8876 357.353 68.7394C357.051 68.8637 356.909 69.2101 357.031 69.5116C357.092 69.6604 357.207 69.7725 357.343 69.8316H357.345Z" fill="black"/>
<path d="M361.141 98.6041C364.067 99.0239 363.245 104.452 360.908 105.426C354.172 108.234 345.204 105.086 340.881 103.246C330.755 98.9383 328.547 91.9387 328.75 89.7339C328.894 88.171 329.949 86.6142 331.481 86.3065C333.321 85.9356 334.654 88.1486 336.083 89.3712C342.784 95.1094 343.161 96.0284 361.141 98.6041Z" fill="white"/>
<path d="M328.162 89.6809C328.316 88.0059 329.464 86.1088 331.363 85.7257C333.047 85.3875 334.301 86.71 335.407 87.8755C335.772 88.2607 336.117 88.6234 336.462 88.9209L337.312 89.6524C343.151 94.6754 344.202 95.5801 361.222 98.0193C362.519 98.2047 363.373 99.1869 363.566 100.715C363.811 102.663 362.892 105.241 361.131 105.975C354.383 108.787 345.401 105.816 340.647 103.792C340.607 103.776 340.568 103.76 340.53 103.741C330.605 99.4722 327.906 92.4319 328.16 89.6809H328.162ZM361.058 99.191C343.697 96.7049 342.465 95.6453 336.547 90.5531L335.697 89.8236C335.305 89.4874 334.922 89.0839 334.553 88.6947C333.569 87.6575 332.637 86.6774 331.595 86.8872C330.276 87.1521 329.446 88.5806 329.334 89.7889C329.117 92.1629 331.755 98.6775 340.996 102.653C341.033 102.669 341.072 102.686 341.108 102.7C345.691 104.65 354.328 107.525 360.681 104.878C361.766 104.426 362.6 102.474 362.397 100.862C362.324 100.277 362.093 99.5761 361.442 99.2949C361.328 99.246 361.2 99.2093 361.058 99.1889V99.191Z" fill="black"/>
<path d="M354.499 78.6121C359.179 80.6253 367.697 76.5907 369.508 75.6818C369.801 75.5351 369.918 75.1806 369.772 74.8871C369.626 74.5937 369.271 74.4755 368.981 74.6222C364.789 76.7272 356.905 79.5698 353.939 76.8759C353.484 76.4643 352.456 75.3721 352.687 74.1332C352.746 73.8112 352.531 73.5015 352.216 73.4424C351.896 73.3813 351.589 73.5932 351.528 73.9151C351.289 75.201 351.879 76.5988 353.148 77.7542C353.545 78.1169 354.002 78.4002 354.499 78.6141V78.6121Z" fill="black"/>
<path d="M359.626 87.036C361.636 87.902 364.25 88.1832 366.897 87.6534C367.216 87.5902 367.423 87.2785 367.36 86.9565C367.297 86.6366 366.984 86.4287 366.668 86.4919C362.257 87.3743 357.828 85.7645 357.189 83.0462C356.806 81.416 357.842 79.4516 359.279 79.0787C359.593 78.9972 359.784 78.6752 359.703 78.3574C359.622 78.0415 359.301 77.85 358.985 77.9315C356.714 78.5183 355.558 81.2591 356.041 83.3151C356.42 84.9331 357.765 86.2331 359.626 87.0319V87.036Z" fill="black"/>
<path d="M352.855 87.0421C352.872 87.0502 352.89 87.0564 352.908 87.0625C353.219 87.1623 353.549 86.9912 353.649 86.6794C354.316 84.5846 354.31 82.28 353.632 80.1872C352.955 78.0965 351.61 76.228 349.842 74.9279C349.579 74.7343 349.211 74.7914 349.019 75.0563C348.826 75.3191 348.883 75.69 349.147 75.8836C350.715 77.0369 351.91 78.6956 352.512 80.554C353.113 82.4104 353.119 84.4583 352.527 86.3187C352.433 86.6121 352.579 86.9239 352.855 87.0421Z" fill="black"/>
<path d="M107.586 185.89C86.9478 185.89 69.4628 179.99 53.6436 150.924C52.0814 148.055 53.1323 144.459 55.989 142.892C58.8437 141.325 62.4246 142.378 63.9869 145.247C81.2222 176.915 97.6968 175.465 127.609 172.83L129.682 172.649C132.922 172.367 135.783 174.774 136.065 178.032C136.347 181.288 133.947 184.16 130.705 184.443L128.639 184.624C121.262 185.274 114.259 185.892 107.588 185.892L107.586 185.89Z" fill="black"/>
<path d="M61.2925 133.563C61.1769 131.01 57.2672 122.394 56.125 120.11C54.7615 117.388 53.2865 114.623 50.9716 112.652C48.6566 110.682 45.802 109.799 43.3065 111.105C42.0404 105.335 39.8066 98.8262 37.6094 93.3448C35.5216 88.1384 31.7033 87.9917 29.3092 91.1848C26.4505 94.9973 31.9873 107.65 34.0547 114.486C29.6074 110.303 18.2497 102.673 14.6241 102.447C11.9095 102.278 8.4482 105.453 12.3173 110.421C15.4499 114.445 21.0537 117.838 25.5801 121.928C17.2211 123.672 17.7466 129.492 23.3544 131.644C20.9482 132.051 18.3066 133.742 18.5074 136.125C18.7083 138.507 20.6763 140.44 22.8939 141.311C25.1094 142.183 27.5542 142.199 29.9361 142.205C31.0601 145.492 37.5891 151.195 41.0037 151.754C44.4183 152.312 61.5116 138.352 61.2966 133.559L61.2925 133.563Z" fill="white"/>
<path d="M54.0372 144.108C53.9906 144.151 53.9439 144.192 53.8993 144.231C50.0079 147.709 43.3349 152.738 40.9043 152.341C37.4937 151.782 31.0723 146.333 29.5303 142.798C27.3331 142.79 24.8903 142.735 22.6768 141.865C19.9865 140.807 18.1199 138.574 17.919 136.178C17.7364 134.001 19.5279 132.31 21.6745 131.493C19.6456 130.293 18.4851 128.51 18.6312 126.684C18.8138 124.395 20.8731 122.584 24.3364 121.622C22.8898 120.373 21.3499 119.177 19.8505 118.015C16.7666 115.621 13.8532 113.359 11.8506 110.788C9.35106 107.576 9.9232 105.292 10.4872 104.216C11.2704 102.722 12.9848 101.754 14.6586 101.858C18.2295 102.08 27.8119 108.444 32.8394 112.634C32.525 111.694 32.174 110.688 31.8128 109.648C29.2747 102.351 26.3998 94.0804 28.8365 90.8302C30.1126 89.1287 31.7966 88.279 33.4583 88.4991C35.3918 88.7558 37.0595 90.3982 38.1531 93.1247C40.6141 99.2582 42.5781 105.312 43.7204 110.272C46.0941 109.38 48.8331 110.06 51.349 112.2C53.7187 114.215 55.2079 116.966 56.6484 119.843C57.7663 122.077 61.7571 130.822 61.8789 133.535C62.0148 136.569 56.549 141.846 54.0352 144.106L54.0372 144.108ZM20.1853 133.728C19.461 134.378 19.0187 135.187 19.0938 136.078C19.2926 138.45 21.3803 140.084 23.1069 140.764C25.2514 141.608 27.6313 141.612 29.9341 141.616C30.1857 141.616 30.4088 141.777 30.49 142.016C31.5714 145.174 37.9137 150.651 41.095 151.171C42.428 151.389 47.5773 148.296 53.1181 143.344C57.8191 139.136 60.7833 135.326 60.7041 133.588C60.6007 131.293 56.9629 123.101 55.5974 120.375C54.2137 117.612 52.7895 114.975 50.5902 113.102C48.2103 111.079 45.6559 110.543 43.5783 111.629C43.416 111.715 43.2233 111.719 43.0569 111.641C42.8905 111.564 42.7708 111.413 42.7303 111.232C41.6286 106.209 39.6159 99.9347 37.0616 93.5669C36.1344 91.2541 34.7994 89.8704 33.3061 89.6728C32.0766 89.5098 30.7903 90.1924 29.7799 91.5414C27.7226 94.2882 30.7294 102.94 32.9267 109.257C33.5678 111.101 34.1724 112.842 34.6188 114.313C34.6959 114.57 34.5944 114.847 34.3652 114.987C34.1379 115.13 33.8458 115.099 33.651 114.916C29.2889 110.812 18.0063 103.248 14.5856 103.036C13.3601 102.959 12.1043 103.67 11.5301 104.764C10.7855 106.184 11.2298 108.063 12.7799 110.056C14.6911 112.511 17.5477 114.729 20.5708 117.078C22.3826 118.484 24.2552 119.939 25.9717 121.49C26.136 121.638 26.205 121.869 26.1462 122.085C26.0893 122.299 25.9149 122.464 25.6978 122.509C22.1614 123.246 19.9601 124.844 19.8059 126.778C19.67 128.471 21.145 130.164 23.5634 131.091C23.8109 131.187 23.9651 131.438 23.9387 131.703C23.9124 131.968 23.7115 132.184 23.4498 132.228C22.2345 132.434 21.0212 132.974 20.1853 133.726V133.728Z" fill="black"/>
<path d="M46.5689 121.869C44.6354 123.607 42.2555 124.842 39.7153 125.382C38.0821 125.73 35.757 125.875 33.9574 124.587C32.0908 123.252 31.2833 120.507 32.036 118.062C33.1945 114.297 37.7372 112.595 41.0544 111.352C41.9268 111.026 42.6795 110.743 43.2314 110.474C43.5235 110.331 43.8766 110.453 44.0186 110.747C44.1606 111.04 44.0369 111.397 43.7467 111.537C43.1421 111.833 42.3651 112.124 41.4663 112.461C38.3783 113.618 34.1481 115.203 33.162 118.411C32.5554 120.383 33.1762 122.574 34.6411 123.621C36.0917 124.658 38.0679 124.52 39.4719 124.222C42.8074 123.511 45.8466 121.5 47.8126 118.7C47.9993 118.433 48.3685 118.37 48.6343 118.557C48.9001 118.745 48.963 119.116 48.7763 119.383C48.1372 120.291 47.3947 121.125 46.5709 121.867L46.5689 121.869Z" fill="black"/>
<path d="M32.9409 122.79C32.8273 122.892 32.6751 122.951 32.5108 122.938C30.2932 122.796 29.508 122.767 27.4061 122.69L25.1824 122.606C24.8578 122.594 24.6042 122.319 24.6164 121.993C24.6286 121.667 24.9025 121.412 25.2271 121.424L27.4487 121.508C29.5628 121.585 30.352 121.616 32.5858 121.759C32.9105 121.779 33.158 122.06 33.1357 122.386C33.1255 122.547 33.0525 122.69 32.9409 122.79Z" fill="black"/>
<path d="M38.5081 151.271C35.8706 152.608 38.3763 157.488 40.9022 157.661C48.1778 158.158 55.6725 152.294 59.1845 149.162C67.4055 141.828 67.2696 134.488 66.3769 132.463C65.7439 131.028 64.2466 129.891 62.6965 130.091C60.836 130.331 60.276 132.856 59.3123 134.474C54.7899 142.062 54.725 143.055 38.5081 151.271Z" fill="white"/>
<path d="M59.6694 149.518C59.6369 149.547 59.6065 149.575 59.5741 149.604C55.7151 153.048 48.1514 158.747 40.8617 158.25C38.9606 158.12 37.2685 155.974 36.881 154.048C36.5767 152.538 37.0737 151.332 38.2424 150.741C53.5909 142.965 54.301 141.769 58.233 135.134L58.8071 134.168C59.0405 133.777 59.2515 133.321 59.4746 132.84C60.1523 131.379 60.9192 129.724 62.6214 129.504C64.5428 129.255 66.2349 130.684 66.9146 132.222C68.0304 134.749 67.716 142.285 59.6714 149.518H59.6694ZM38.4412 152.023C37.9117 152.498 37.9177 153.237 38.0354 153.814C38.356 155.407 39.7681 156.989 40.9408 157.068C47.8004 157.537 55.0699 152.037 58.7909 148.718C58.8213 148.691 58.8518 148.663 58.8822 148.636C66.3728 141.901 66.7989 134.879 65.8372 132.701C65.3462 131.591 64.1066 130.505 62.7716 130.678C61.7166 130.814 61.1464 132.041 60.5439 133.339C60.3166 133.826 60.0833 134.331 59.8195 134.776L59.2474 135.739C55.2606 142.466 54.4329 143.866 38.776 151.797C38.6481 151.862 38.5386 151.937 38.4453 152.021L38.4412 152.023Z" fill="black"/>
<path d="M38.4351 130.193C34.6411 133.604 25.2879 132.518 23.2814 132.237C22.9588 132.192 22.7336 131.892 22.7782 131.568C22.8228 131.242 23.1211 131.018 23.4437 131.063C28.0858 131.711 36.461 131.872 38.4148 128.365C38.7131 127.829 39.342 126.464 38.7273 125.365C38.569 125.08 38.6725 124.715 38.9525 124.561C39.2365 124.4 39.5956 124.501 39.7559 124.787C40.393 125.928 40.2794 127.444 39.4435 128.944C39.1817 129.414 38.8409 129.83 38.4371 130.193H38.4351Z" fill="black"/>
<path d="M36.2601 139.821C34.6289 141.286 32.243 142.393 29.5669 142.741C29.2443 142.784 28.948 142.554 28.9075 142.23C28.8649 141.906 29.0941 141.608 29.4167 141.567C33.8782 140.986 37.5607 138.038 37.301 135.258C37.1447 133.592 35.5379 132.063 34.0588 132.171C33.7342 132.196 33.4522 131.951 33.4278 131.625C33.4055 131.299 33.6469 131.016 33.9716 130.992C36.3088 130.818 38.2769 133.044 38.4757 135.146C38.6319 136.801 37.7696 138.464 36.2622 139.821H36.2601Z" fill="black"/>
<path d="M42.6755 137.653C42.6613 137.665 42.6471 137.677 42.6308 137.689C42.3691 137.883 41.9999 137.828 41.8071 137.563C40.5086 135.792 39.7803 133.606 39.7559 131.407C39.7316 129.209 40.4112 127.006 41.6712 125.208C41.8599 124.942 42.2251 124.876 42.4929 125.064C42.7587 125.251 42.8236 125.622 42.6349 125.889C41.515 127.487 40.9124 129.441 40.9327 131.395C40.955 133.347 41.6022 135.289 42.7546 136.862C42.9372 137.109 42.8987 137.453 42.6734 137.653H42.6755Z" fill="black"/>
<path d="M156.563 241.256C139.108 257.951 148.301 279.048 154.684 292.409C160.539 278.09 170.889 265.664 183.886 257.346C192.36 251.922 204.412 251.543 211.391 244.282C220.98 234.31 221.351 214.852 215.613 202.242C214.145 199.01 212.028 195.872 208.855 194.301C206.068 192.922 202.829 192.92 199.723 192.946C195.538 192.983 187.554 194.118 183.37 194.153C181.333 194.171 154.161 192.382 152.623 193.725C151.087 195.067 189.126 210.114 156.563 241.258V241.256Z" fill="#FAD405"/>
<path d="M154.684 293C154.459 293 154.252 292.87 154.152 292.664C148.431 280.688 137.781 258.4 156.155 240.826C165.364 232.017 169.732 223.669 169.138 216.011C168.345 205.786 159.006 199.298 154.518 196.18C152.538 194.805 152.018 194.421 151.988 193.859C151.976 193.635 152.065 193.423 152.235 193.274C153.246 192.39 160.186 192.41 178.765 193.35C181.177 193.472 182.912 193.557 183.364 193.555C185.432 193.537 188.512 193.242 191.49 192.954C194.495 192.665 197.601 192.365 199.719 192.349C202.732 192.323 206.145 192.294 209.117 193.765C211.976 195.18 214.276 197.871 216.151 201.992C221.822 214.458 221.777 234.328 211.817 244.69C207.676 248.998 201.758 250.954 196.037 252.845C191.942 254.198 187.71 255.598 184.202 257.841C171.323 266.086 161.032 278.441 155.23 292.631C155.141 292.847 154.934 292.992 154.702 292.998C154.696 292.998 154.69 292.998 154.684 292.998V293ZM153.536 194.024C153.939 194.34 154.57 194.778 155.187 195.208C159.823 198.43 169.475 205.134 170.313 215.919C170.935 223.95 166.448 232.618 156.967 241.684C139.798 258.104 148.969 279.021 154.648 290.964C160.625 277.063 170.852 264.981 183.567 256.845C187.199 254.52 191.502 253.097 195.665 251.722C201.509 249.79 207.027 247.966 210.965 243.869C220.582 233.866 220.586 214.599 215.076 202.485C213.319 198.623 211.199 196.119 208.594 194.829C205.873 193.482 202.606 193.511 199.727 193.535C197.66 193.553 194.58 193.849 191.602 194.136C188.599 194.426 185.493 194.723 183.375 194.741C182.906 194.745 181.232 194.662 178.706 194.534C172.544 194.222 156.912 193.431 153.538 194.022L153.536 194.024Z" fill="black"/>
<path d="M159.046 265.974C159.026 265.974 159.006 265.974 158.985 265.97C158.661 265.937 158.425 265.646 158.458 265.32C159.789 252.233 170.408 247.06 180.678 242.057C192.241 236.425 203.162 231.102 199.573 214.843C198.865 211.638 198.794 208.624 198.727 205.71C198.628 201.474 198.532 197.47 196.505 193.321C196.361 193.028 196.483 192.673 196.775 192.528C197.067 192.384 197.42 192.506 197.565 192.799C199.707 197.183 199.804 201.311 199.908 205.682C199.975 208.539 200.046 211.493 200.728 214.587C204.518 231.759 192.661 237.535 181.195 243.121C171.217 247.983 160.899 253.01 159.633 265.44C159.602 265.746 159.344 265.972 159.046 265.972V265.974Z" fill="black"/>
<path d="M104.911 186.986C80.8144 186.393 72.4636 207.842 67.5699 221.823C81.7903 215.856 97.8571 214.42 112.905 217.768C122.717 219.95 131.506 228.239 141.553 228.064C155.354 227.822 169.316 214.326 174.137 201.335C175.373 198.006 176.087 194.285 174.949 190.921C173.948 187.966 171.66 185.665 169.444 183.477C166.46 180.53 160.016 175.662 157.031 172.716C155.579 171.281 137.623 150.719 135.59 150.576C133.557 150.433 149.863 188.09 104.911 186.986Z" fill="#FAD405"/>
<path d="M141.241 228.659C135.402 228.659 129.946 225.894 124.665 223.216C120.818 221.266 116.839 219.249 112.78 218.346C97.8672 215.029 81.8918 216.457 67.7992 222.371C67.5841 222.46 67.3366 222.416 67.1682 222.255C66.9998 222.094 66.9389 221.849 67.016 221.627C71.4004 209.097 79.593 185.778 104.928 186.395C117.637 186.709 126.608 183.905 131.579 178.069C138.216 170.275 136.181 159.055 135.203 153.663C134.773 151.283 134.673 150.645 135.049 150.226C135.197 150.058 135.406 149.971 135.635 149.987C136.972 150.081 141.868 155.024 154.343 168.885C155.962 170.684 157.133 171.984 157.447 172.296C158.92 173.751 161.308 175.73 163.617 177.643C165.944 179.573 168.351 181.566 169.862 183.057C172.011 185.178 174.443 187.581 175.511 190.733C176.535 193.763 176.267 197.301 174.693 201.545C169.925 214.389 155.905 228.406 141.567 228.659C141.46 228.659 141.352 228.661 141.245 228.661L141.241 228.659ZM96.7229 215.412C102.207 215.412 107.685 216.001 113.033 217.191C117.239 218.126 121.285 220.176 125.196 222.161C130.688 224.944 135.876 227.575 141.543 227.473C155.386 227.231 168.953 213.611 173.585 201.13C175.042 197.207 175.314 193.835 174.391 191.112C173.415 188.227 171.088 185.928 169.032 183.901C167.559 182.446 165.171 180.467 162.865 178.556C160.537 176.626 158.129 174.631 156.62 173.142C156.279 172.805 155.161 171.562 153.467 169.682C149.33 165.085 138.828 153.421 136.028 151.444C136.091 151.953 136.227 152.714 136.363 153.455C137.374 159.026 139.478 170.621 132.476 178.841C127.264 184.962 117.98 187.903 104.899 187.583C81.208 187.004 72.9566 208.302 68.564 220.783C77.4871 217.228 87.1121 215.416 96.725 215.416L96.7229 215.412Z" fill="black"/>
<path d="M138.021 209.802C132.502 209.802 126.712 207.785 121.013 205.8C110.534 202.151 99.6973 198.379 90.054 206.269C89.8024 206.477 89.4291 206.436 89.2242 206.183C89.0192 205.93 89.0558 205.558 89.3094 205.35C99.4639 197.042 110.615 200.926 121.4 204.681C133.541 208.91 145.01 212.904 153.919 198.858C155.676 196.088 157.748 193.908 159.75 191.799C162.664 188.732 165.415 185.835 166.902 181.462C167.008 181.152 167.342 180.987 167.651 181.093C167.959 181.199 168.123 181.535 168.018 181.845C166.448 186.464 163.609 189.454 160.604 192.618C158.64 194.686 156.609 196.824 154.915 199.497C149.961 207.308 144.16 209.804 138.023 209.804L138.021 209.802Z" fill="black"/>
<path d="M106.595 111.929C89.9728 94.3982 68.9678 103.631 55.6644 110.042C69.9214 115.923 82.2935 126.317 90.5754 139.371C95.9763 147.882 96.3537 159.986 103.583 166.996C113.512 176.626 132.886 176.999 145.44 171.236C148.658 169.761 151.783 167.636 153.347 164.449C154.721 161.649 154.723 158.397 154.696 155.277C154.66 151.073 153.53 143.055 153.495 138.853C153.477 136.807 155.258 109.516 153.921 107.971C152.584 106.429 137.603 144.634 106.593 111.929H106.595Z" fill="#FAD405"/>
<path d="M126.992 175.605C118.055 175.605 109.071 173.142 103.175 167.424C98.8857 163.265 96.938 157.323 95.0552 151.577C93.708 147.464 92.3141 143.214 90.0783 139.691C81.8695 126.755 69.5683 116.42 55.4412 110.592C55.2262 110.502 55.0821 110.294 55.076 110.062C55.0699 109.828 55.1998 109.612 55.4108 109.512C67.3345 103.766 89.5244 93.0697 107.024 111.523C115.794 120.772 124.111 125.16 131.731 124.563C141.91 123.766 148.37 114.386 151.476 109.879C152.846 107.89 153.227 107.368 153.787 107.338C154.006 107.328 154.221 107.415 154.37 107.586C155.25 108.601 155.23 115.572 154.295 134.223C154.173 136.652 154.084 138.407 154.088 138.851C154.106 140.927 154.4 144.021 154.686 147.012C154.974 150.03 155.27 153.15 155.289 155.275C155.315 158.299 155.345 161.726 153.881 164.714C152.471 167.585 149.792 169.896 145.69 171.778C140.37 174.22 133.695 175.605 126.994 175.605H126.992ZM57.1008 110.009C70.9439 116.012 82.9711 126.286 91.0725 139.055C93.3874 142.702 94.8036 147.026 96.1731 151.206C98.0965 157.074 99.9123 162.615 103.992 166.572C113.952 176.231 133.135 176.235 145.197 170.7C148.989 168.96 151.553 166.77 152.82 164.19C154.161 161.455 154.132 158.177 154.108 155.285C154.09 153.209 153.795 150.115 153.509 147.124C153.221 144.106 152.925 140.989 152.907 138.861C152.903 138.382 152.986 136.703 153.114 134.164C153.424 127.978 154.211 112.279 153.621 108.895C153.306 109.3 152.868 109.934 152.442 110.553C149.234 115.211 142.557 124.903 131.821 125.742C123.823 126.368 115.194 121.858 106.167 112.338C89.8186 95.0951 68.9942 104.306 57.1008 110.009Z" fill="black"/>
<path d="M127.041 157.007C114.559 157.007 109.576 146.69 104.735 136.667C99.8941 126.645 94.8888 116.281 82.5146 115.01C82.19 114.977 81.9547 114.686 81.9871 114.362C82.0196 114.036 82.3158 113.801 82.6343 113.834C95.6638 115.171 100.815 125.836 105.796 136.151C111.404 147.764 116.701 158.733 132.892 155.128C136.083 154.417 139.084 154.346 141.985 154.279C146.203 154.179 150.188 154.085 154.321 152.047C154.613 151.903 154.966 152.025 155.11 152.318C155.254 152.612 155.132 152.966 154.84 153.111C150.476 155.263 146.366 155.361 142.014 155.462C139.169 155.53 136.227 155.599 133.147 156.286C130.93 156.779 128.901 157.009 127.041 157.009V157.007Z" fill="black"/>
<path d="M160.631 60.0526C161.221 35.8506 139.865 27.4634 125.945 22.5484C131.885 36.8308 133.316 52.9674 129.982 68.0812C127.809 77.9356 119.556 86.7629 119.73 96.8537C119.972 110.714 133.409 124.738 146.343 129.579C149.659 130.82 153.363 131.538 156.713 130.394C159.655 129.39 161.945 127.091 164.124 124.866C167.058 121.869 171.905 115.397 174.839 112.399C176.267 110.94 196.741 92.9066 196.883 90.8649C197.025 88.8231 159.531 105.2 160.631 60.0526Z" fill="#FAD405"/>
<path d="M153.071 131.566C150.987 131.566 148.691 131.089 146.136 130.134C133.348 125.345 119.392 111.264 119.14 96.8639C119.037 90.8771 121.843 85.2917 124.557 79.8918C126.499 76.0283 128.505 72.0323 129.406 67.9548C132.709 52.9776 131.287 36.9347 125.399 22.7787C125.31 22.5627 125.355 22.3141 125.515 22.145C125.675 21.9738 125.921 21.9147 126.14 21.9922C138.615 26.3957 161.838 34.5954 161.219 60.0689C160.909 72.8372 163.698 81.8439 169.509 86.8363C177.27 93.5017 188.441 91.4578 193.809 90.4756C196.179 90.0416 196.816 89.9438 197.232 90.3208C197.398 90.4695 197.485 90.6855 197.469 90.9097C197.376 92.2525 192.454 97.1675 178.659 109.695C176.866 111.323 175.569 112.501 175.259 112.817C173.81 114.299 171.84 116.695 169.935 119.012C168.014 121.349 166.03 123.766 164.544 125.284C162.432 127.442 160.038 129.887 156.902 130.957C155.709 131.364 154.435 131.568 153.071 131.568V131.566ZM126.986 23.5429C132.547 37.6194 133.819 53.4239 130.559 68.2075C129.627 72.4296 127.586 76.4929 125.61 80.4216C122.839 85.9377 120.221 91.146 120.321 96.8394C120.562 110.743 134.123 124.369 146.55 129.021C150.456 130.484 153.814 130.757 156.524 129.83C159.395 128.85 161.686 126.511 163.704 124.448C165.153 122.969 167.123 120.571 169.028 118.254C170.95 115.917 172.934 113.5 174.419 111.982C174.754 111.639 175.993 110.515 177.87 108.811C182.445 104.656 194.057 94.113 196.023 91.3009C195.515 91.3641 194.759 91.5006 194.02 91.6371C188.473 92.6519 176.931 94.765 168.744 87.7329C162.649 82.498 159.72 73.1795 160.04 60.0363C160.621 36.2317 139.411 27.9545 126.984 23.5429H126.986Z" fill="black"/>
<path d="M165.942 123.464C165.879 123.464 165.815 123.454 165.752 123.432C161.15 121.854 158.176 119.004 155.025 115.986C152.966 114.013 150.837 111.974 148.177 110.272C133.407 100.821 137.725 88.3157 141.898 76.2239C145.532 65.6991 149.289 54.8157 141.433 45.1284C141.229 44.8757 141.265 44.5028 141.519 44.2949C141.772 44.0891 142.144 44.1278 142.348 44.3805C150.62 54.5793 146.753 65.7786 143.014 76.611C138.804 88.8068 134.827 100.324 148.812 109.274C151.57 111.038 153.741 113.119 155.841 115.13C158.894 118.056 161.779 120.819 166.135 122.313C166.443 122.419 166.608 122.755 166.502 123.065C166.419 123.311 166.19 123.466 165.944 123.466L165.942 123.464Z" fill="black"/>
<path d="M235.363 61.7439C252.817 45.0489 243.624 23.9524 237.241 10.5911C231.386 24.9102 221.037 37.3361 208.04 45.6541C199.565 51.0785 187.513 51.4575 180.534 58.7179C170.946 68.6905 170.574 88.1486 176.312 100.758C177.781 103.99 179.897 107.128 183.07 108.699C185.858 110.078 189.096 110.081 192.202 110.054C196.388 110.017 204.371 108.882 208.555 108.848C210.592 108.829 237.765 110.618 239.303 109.276C240.839 107.933 202.799 92.8863 235.363 61.7418V61.7439Z" fill="#FAD405"/>
<path d="M190.979 110.655C188.288 110.655 185.383 110.506 182.808 109.233C179.95 107.819 177.649 105.127 175.774 101.007C170.104 88.5398 170.148 68.6701 180.108 58.3083C184.249 54.0006 190.167 52.0444 195.889 50.1534C199.983 48.8003 204.215 47.4004 207.723 45.1569C220.603 36.9123 230.893 24.5576 236.696 10.367C236.785 10.151 236.992 10.0063 237.223 10.0002C237.456 9.99409 237.669 10.1245 237.771 10.3364C243.492 22.3121 254.142 44.6006 235.768 62.1738C226.559 70.9829 222.191 79.3314 222.786 86.9891C223.579 97.2144 232.918 103.702 237.406 106.82C239.386 108.196 239.905 108.579 239.936 109.141C239.948 109.365 239.859 109.577 239.688 109.726C238.678 110.61 231.735 110.59 213.159 109.651C210.746 109.528 208.987 109.441 208.559 109.445C206.492 109.463 203.412 109.759 200.433 110.046C197.429 110.335 194.322 110.635 192.204 110.651C191.803 110.655 191.391 110.657 190.977 110.657L190.979 110.655ZM237.274 12.0338C231.297 25.9351 221.069 38.0167 208.354 46.1533C204.722 48.4784 200.419 49.9007 196.256 51.2761C190.413 53.2079 184.894 55.0317 180.956 59.1295C171.339 69.1326 171.335 88.3992 176.846 100.513C178.603 104.375 180.723 106.879 183.328 108.169C186.049 109.516 189.315 109.488 192.194 109.463C194.262 109.445 197.341 109.149 200.32 108.862C203.323 108.573 206.429 108.275 208.547 108.257C209.038 108.255 210.689 108.336 213.215 108.465C219.377 108.776 235.012 109.567 238.384 108.976C237.98 108.66 237.349 108.222 236.732 107.792C232.096 104.571 222.445 97.8664 221.607 87.0808C220.984 79.0502 225.472 70.3818 234.953 61.316C252.121 44.8961 242.951 23.9789 237.272 12.0359L237.274 12.0338Z" fill="black"/>
<path d="M194.89 110.529C194.671 110.529 194.464 110.407 194.361 110.197C192.218 105.814 192.121 101.685 192.02 97.3142C191.953 94.4573 191.882 91.5027 191.2 88.4094C187.41 71.2376 199.267 65.4607 210.732 59.8753C220.71 55.0133 231.029 49.9863 232.295 37.5562C232.327 37.2302 232.622 36.9958 232.942 37.0284C233.267 37.061 233.502 37.3524 233.47 37.6785C232.139 50.7647 221.52 55.9384 211.249 60.941C199.687 66.5733 188.765 71.8958 192.354 88.1547C193.062 91.36 193.133 94.3738 193.2 97.2877C193.3 101.524 193.395 105.528 195.422 109.677C195.566 109.97 195.444 110.325 195.152 110.47C195.069 110.51 194.98 110.531 194.893 110.531L194.89 110.529Z" fill="black"/>
<path d="M287.014 116.014C311.111 116.607 319.462 95.1583 324.356 81.1776C310.133 87.144 294.068 88.5806 279.02 85.2326C269.208 83.0502 260.419 74.7608 250.372 74.9361C236.572 75.1785 222.609 88.6743 217.788 101.665C216.553 104.994 215.839 108.715 216.977 112.079C217.977 115.034 220.266 117.335 222.481 119.523C225.466 122.47 231.909 127.338 234.894 130.284C236.347 131.719 254.302 152.282 256.335 152.424C258.368 152.567 242.062 114.91 287.014 116.014Z" fill="#FAD405"/>
<path d="M256.345 153.015C256.329 153.015 256.311 153.015 256.295 153.015C254.958 152.921 250.062 147.978 237.586 134.117C235.967 132.318 234.797 131.018 234.482 130.706C233.009 129.251 230.621 127.273 228.312 125.359C225.985 123.43 223.579 121.437 222.067 119.945C219.919 117.824 217.484 115.421 216.419 112.269C215.394 109.239 215.662 105.701 217.237 101.457C222.004 88.6132 236.024 74.5957 250.362 74.3431C256.347 74.2391 261.884 77.0573 267.261 79.7838C271.108 81.7338 275.086 83.7512 279.146 84.6539C294.06 87.9713 310.034 86.5429 324.126 80.6294C324.341 80.5397 324.589 80.5846 324.757 80.7456C324.926 80.9065 324.987 81.1511 324.909 81.3732C320.525 93.9031 312.351 117.227 286.998 116.605C274.291 116.293 265.317 119.095 260.346 124.931C253.71 132.726 255.745 143.945 256.723 149.337C257.153 151.717 257.252 152.355 256.877 152.775C256.739 152.93 256.546 153.015 256.341 153.015H256.345ZM250.697 75.5249C250.593 75.5249 250.488 75.5249 250.385 75.527C236.541 75.7695 222.974 89.3895 218.342 101.871C216.886 105.793 216.614 109.166 217.537 111.888C218.513 114.773 220.84 117.072 222.895 119.099C224.368 120.554 226.756 122.533 229.063 124.444C231.39 126.374 233.798 128.369 235.308 129.859C235.649 130.195 236.767 131.438 238.461 133.319C242.598 137.916 253.099 149.58 255.899 151.556C255.836 151.047 255.7 150.287 255.564 149.545C254.554 143.974 252.45 132.379 259.452 124.159C264.664 118.038 273.946 115.095 287.028 115.417C287.345 115.425 287.663 115.429 287.976 115.429C310.953 115.429 319.03 94.5307 323.366 82.2188C309.352 87.8042 293.614 89.0818 278.894 85.8072C274.689 84.8719 270.643 82.822 266.731 80.8373C261.34 78.1047 256.244 75.5209 250.697 75.5209V75.5249Z" fill="black"/>
<path d="M224.468 121.94C224.405 121.94 224.34 121.93 224.277 121.907C223.968 121.801 223.804 121.465 223.91 121.155C225.48 116.536 228.318 113.547 231.323 110.382C233.287 108.314 235.318 106.176 237.012 103.503C246.422 88.6682 258.873 93.0045 270.913 97.196C281.394 100.846 292.228 104.619 301.871 96.7273C302.125 96.5215 302.496 96.5603 302.701 96.8129C302.906 97.0656 302.87 97.4385 302.616 97.6464C292.462 105.954 281.311 102.07 270.525 98.3147C258.384 94.0865 246.915 90.0926 238.004 104.139C236.247 106.908 234.176 109.088 232.173 111.197C229.26 114.264 226.509 117.162 225.021 121.534C224.938 121.781 224.709 121.936 224.464 121.936L224.468 121.94Z" fill="black"/>
<path d="M285.33 191.071C301.953 208.602 322.958 199.369 336.261 192.958C322.004 187.078 309.632 176.683 301.35 163.63C295.949 155.118 295.572 143.014 288.343 136.004C278.414 126.374 259.04 126.001 246.485 131.764C243.267 133.239 240.143 135.364 238.578 138.551C237.205 141.351 237.203 144.603 237.229 147.723C237.266 151.927 238.396 159.945 238.43 164.147C238.449 166.193 236.667 193.484 238.004 195.029C239.341 196.571 254.323 158.366 285.332 191.071H285.33Z" fill="#FAD405"/>
<path d="M308.293 201.831C300.405 201.831 292.242 199.22 284.902 191.479C276.131 182.23 267.815 177.843 260.194 178.44C250.015 179.236 243.555 188.616 240.449 193.123C239.08 195.112 238.698 195.634 238.138 195.664C237.917 195.677 237.704 195.587 237.556 195.416C236.675 194.401 236.696 187.43 237.631 168.779C237.753 166.35 237.842 164.595 237.838 164.151C237.82 162.075 237.525 158.982 237.239 155.99C236.951 152.972 236.655 149.853 236.637 147.727C236.61 144.703 236.58 141.276 238.045 138.289C239.455 135.417 242.133 133.107 246.235 131.224C258.648 125.528 278.432 125.573 288.747 135.578C293.036 139.737 294.983 145.679 296.866 151.426C298.213 155.538 299.607 159.788 301.843 163.312C310.052 176.247 322.353 186.582 336.48 192.41C336.695 192.5 336.839 192.708 336.845 192.94C336.851 193.174 336.722 193.39 336.511 193.49C329.59 196.826 319.204 201.831 308.289 201.831H308.293ZM285.756 190.662C302.105 207.905 322.929 198.695 334.823 192.991C320.98 186.988 308.952 176.714 300.851 163.945C298.536 160.298 297.12 155.974 295.75 151.795C293.827 145.926 292.011 140.385 287.931 136.428C277.971 126.769 258.79 126.765 246.726 132.3C242.934 134.04 240.37 136.23 239.104 138.81C237.763 141.545 237.791 144.824 237.816 147.715C237.834 149.791 238.128 152.885 238.414 155.876C238.702 158.894 238.998 162.012 239.017 164.139C239.021 164.618 238.938 166.297 238.81 168.836C238.499 175.022 237.712 190.721 238.303 194.106C238.617 193.7 239.055 193.066 239.481 192.447C242.689 187.789 249.366 178.097 260.103 177.258C268.095 176.63 276.73 181.142 285.756 190.662Z" fill="black"/>
<path d="M309.352 189.17C309.332 189.17 309.311 189.17 309.291 189.166C296.262 187.829 291.11 177.164 286.129 166.849C280.52 155.236 275.222 144.265 259.034 147.872C255.842 148.583 252.841 148.654 249.94 148.722C245.722 148.822 241.737 148.915 237.605 150.953C237.312 151.098 236.959 150.975 236.815 150.682C236.671 150.389 236.793 150.034 237.085 149.889C241.449 147.737 245.56 147.64 249.912 147.538C252.756 147.471 255.698 147.401 258.778 146.715C275.882 142.908 281.627 154.816 287.188 166.332C292.029 176.353 297.035 186.717 309.409 187.988C309.733 188.021 309.969 188.312 309.936 188.636C309.906 188.942 309.648 189.168 309.35 189.168L309.352 189.17Z" fill="black"/>
<path d="M231.295 242.948C230.704 267.15 252.06 275.537 265.981 280.452C260.04 266.169 258.61 250.033 261.943 234.919C264.116 225.065 272.369 216.237 272.195 206.146C271.954 192.286 258.516 178.262 245.582 173.421C242.267 172.18 238.562 171.463 235.213 172.606C232.271 173.61 229.98 175.909 227.801 178.134C224.867 181.132 220.02 187.603 217.086 190.601C215.658 192.06 195.185 210.094 195.043 212.135C194.901 214.177 232.394 197.8 231.295 242.948Z" fill="#FAD405"/>
<path d="M265.981 281.043C265.916 281.043 265.849 281.033 265.786 281.01C253.31 276.607 230.088 268.407 230.706 242.933C231.017 230.165 228.229 221.158 222.416 216.166C214.656 209.501 203.485 211.544 198.116 212.527C195.749 212.961 195.11 213.058 194.694 212.681C194.527 212.533 194.44 212.317 194.456 212.093C194.55 210.75 199.472 205.835 213.266 193.307C215.06 191.679 216.356 190.501 216.666 190.185C218.115 188.704 220.085 186.307 221.99 183.99C223.912 181.653 225.896 179.236 227.381 177.718C229.493 175.56 231.887 173.115 235.024 172.045C238.041 171.016 241.563 171.283 245.789 172.867C258.577 177.655 272.534 191.736 272.785 206.136C272.889 212.123 270.083 217.708 267.368 223.11C265.427 226.974 263.42 230.97 262.519 235.047C259.216 250.025 260.638 266.068 266.526 280.224C266.616 280.44 266.571 280.688 266.411 280.857C266.297 280.977 266.141 281.043 265.983 281.043H265.981ZM231.295 242.948L231.883 242.962C231.303 266.766 252.513 275.044 264.94 279.455C259.379 265.379 258.106 249.572 261.367 234.791C262.298 230.569 264.339 226.505 266.315 222.577C269.087 217.06 271.704 211.852 271.605 206.157C271.363 192.253 257.802 178.627 245.375 173.975C241.47 172.512 238.114 172.241 235.401 173.166C232.53 174.146 230.24 176.486 228.221 178.548C226.772 180.027 224.802 182.425 222.897 184.742C220.976 187.08 218.992 189.496 217.506 191.014C217.172 191.357 215.932 192.482 214.055 194.185C209.48 198.34 197.869 208.883 195.903 211.695C196.41 211.632 197.165 211.493 197.905 211.359C203.452 210.344 214.997 208.233 223.181 215.263C229.276 220.498 232.206 229.817 231.885 242.96L231.297 242.946L231.295 242.948Z" fill="black"/>
<path d="M250.038 258.838C249.865 258.838 249.697 258.762 249.579 258.62C241.307 248.421 245.174 237.222 248.914 226.389C253.123 214.195 257.1 202.676 243.115 193.727C240.358 191.962 238.187 189.881 236.087 187.87C233.033 184.944 230.148 182.181 225.792 180.687C225.484 180.581 225.32 180.245 225.425 179.935C225.531 179.626 225.863 179.461 226.174 179.567C230.775 181.144 233.75 183.995 236.901 187.012C238.96 188.985 241.088 191.025 243.748 192.726C258.518 202.177 254.201 214.682 250.027 226.774C246.394 237.299 242.636 248.183 250.494 257.87C250.699 258.122 250.662 258.495 250.409 258.703C250.299 258.793 250.167 258.836 250.038 258.836V258.838Z" fill="black"/>
<path d="M195.964 220.158C233.719 220.158 264.325 189.418 264.325 151.499C264.325 113.58 233.719 82.8403 195.964 82.8403C158.209 82.8403 127.603 113.58 127.603 151.499C127.603 189.418 158.209 220.158 195.964 220.158Z" fill="#FAD405"/>
<path d="M195.998 220.753C195.039 220.753 194.079 220.732 193.113 220.694C155.126 219.115 125.501 186.79 127.071 148.638C127.832 130.156 135.714 113.078 149.265 100.55C162.814 88.0222 180.414 81.5443 198.814 82.3085C236.801 83.8877 266.429 116.21 264.857 154.364C263.325 191.546 232.715 220.753 195.998 220.753ZM195.895 83.4313C178.854 83.4313 162.676 89.7584 150.062 101.42C136.745 113.734 128.996 130.521 128.248 148.685C126.704 186.185 155.822 217.957 193.16 219.508C194.107 219.547 195.057 219.567 195.996 219.567C232.088 219.569 262.17 190.862 263.676 154.313C265.22 116.813 236.101 85.0411 198.764 83.4904C197.806 83.4496 196.846 83.4313 195.893 83.4313H195.895Z" fill="black"/>
<path d="M221.516 174.904C222.173 179.047 219.957 183.188 215.967 186.277C213.023 188.559 209.109 190.265 204.674 190.976C200.239 191.687 195.99 191.287 192.484 190.04C187.735 188.353 184.346 185.109 183.687 180.966C182.545 173.767 192.078 179.139 202.527 177.466C212.972 175.793 220.373 167.707 221.516 174.906V174.904Z" fill="white"/>
<path d="M200.293 191.921C197.469 191.921 194.757 191.477 192.285 190.597C187.122 188.763 183.776 185.286 183.105 181.058C182.853 179.473 183.076 178.336 183.786 177.58C185.132 176.149 187.814 176.422 191.525 176.799C194.635 177.115 198.506 177.508 202.434 176.881C206.362 176.251 209.916 174.668 212.775 173.396C216.188 171.878 218.651 170.78 220.373 171.719C221.282 172.214 221.846 173.227 222.098 174.813C222.769 179.039 220.665 183.389 216.326 186.747C213.173 189.191 209.176 190.855 204.765 191.561C203.258 191.801 201.76 191.921 200.295 191.921H200.293ZM187.371 177.682C186.099 177.682 185.144 177.859 184.643 178.393C184.2 178.864 184.079 179.675 184.269 180.873C184.87 184.659 187.935 187.797 192.681 189.482C196.248 190.752 200.36 191.067 204.58 190.391C208.796 189.716 212.611 188.131 215.607 185.808C219.594 182.723 221.536 178.784 220.935 174.998C220.745 173.8 220.377 173.068 219.811 172.759C218.598 172.098 216.24 173.146 213.254 174.476C210.334 175.776 206.701 177.394 202.621 178.048C198.54 178.703 194.584 178.299 191.407 177.977C189.879 177.822 188.502 177.682 187.373 177.682H187.371Z" fill="black"/>
<path d="M191.871 177.596C190.425 181.301 190.094 185.311 190.922 189.087L191.871 177.596Z" fill="white"/>
<path d="M190.922 189.678C190.652 189.678 190.407 189.49 190.348 189.213C189.492 185.303 189.828 181.211 191.326 177.38C191.443 177.074 191.786 176.926 192.089 177.046C192.391 177.166 192.541 177.508 192.421 177.812C191.011 181.425 190.691 185.278 191.498 188.958C191.569 189.278 191.366 189.594 191.05 189.663C191.007 189.674 190.965 189.678 190.922 189.678Z" fill="black"/>
<path d="M199.652 177.855C198.279 182.201 198.155 186.819 199.295 191.133L199.652 177.855Z" fill="white"/>
<path d="M199.293 191.726C199.031 191.726 198.794 191.55 198.723 191.285C197.55 186.849 197.676 182.144 199.088 177.678C199.186 177.366 199.516 177.193 199.829 177.292C200.139 177.392 200.31 177.724 200.212 178.036C198.867 182.289 198.747 186.766 199.863 190.982C199.946 191.298 199.76 191.622 199.445 191.705C199.395 191.719 199.344 191.726 199.293 191.726Z" fill="black"/>
<path d="M206.094 176.877C206.104 181.268 207.569 185.598 210.257 189.183L206.094 176.877Z" fill="white"/>
<path d="M210.259 189.773C210.081 189.773 209.904 189.692 209.789 189.537C207.037 185.869 205.516 181.372 205.506 176.877C205.506 176.551 205.767 176.284 206.094 176.284C206.419 176.284 206.682 176.549 206.682 176.875C206.692 181.115 208.129 185.36 210.728 188.826C210.923 189.087 210.872 189.458 210.612 189.655C210.507 189.735 210.381 189.773 210.259 189.773Z" fill="black"/>
<path d="M213.361 173.922C214.197 177.386 216.102 180.606 218.817 183.137L213.361 173.922Z" fill="white"/>
<path d="M218.817 183.73C218.673 183.73 218.529 183.677 218.415 183.571C215.601 180.946 213.656 177.657 212.789 174.061C212.712 173.743 212.907 173.423 213.223 173.345C213.54 173.268 213.859 173.464 213.936 173.781C214.749 177.152 216.575 180.235 219.219 182.703C219.456 182.925 219.47 183.3 219.249 183.538C219.134 183.664 218.975 183.728 218.817 183.728V183.73Z" fill="black"/>
<path d="M187.55 141.918C190.291 157.496 181.358 172.109 167.6 174.55C153.838 176.991 140.466 166.338 137.725 150.759C137.686 150.535 137.65 150.309 137.615 150.089L187.424 141.249C187.467 141.469 187.511 141.692 187.55 141.918Z" fill="black"/>
<path d="M163.67 175.487C151.113 175.487 139.67 165.213 137.144 150.861C137.106 150.641 137.071 150.421 137.037 150.203L136.948 149.628L137.514 149.502L187.891 140.563L188.002 141.133C188.049 141.378 188.092 141.594 188.13 141.812C190.924 157.69 181.76 172.634 167.703 175.13C166.354 175.371 165.005 175.487 163.67 175.487ZM138.291 150.57C138.297 150.598 138.301 150.627 138.305 150.655C140.985 165.889 154.084 176.345 167.499 173.965C180.913 171.585 189.65 157.252 186.97 142.02C186.964 141.991 186.96 141.963 186.953 141.932L138.289 150.568L138.291 150.57Z" fill="black"/>
<path d="M250.62 131.085C253.361 146.664 244.428 161.276 230.67 163.717C216.908 166.158 203.536 155.505 200.795 139.927C200.756 139.703 200.719 139.477 200.685 139.257L250.494 130.417C250.537 130.637 250.581 130.859 250.62 131.085Z" fill="black"/>
<path d="M226.74 164.657C214.183 164.657 202.74 154.382 200.214 140.031C200.176 139.811 200.141 139.591 200.107 139.373L200.017 138.798L200.584 138.672L250.961 129.732L251.072 130.303C251.121 130.547 251.162 130.763 251.2 130.981C252.551 138.659 251.178 146.35 247.335 152.636C243.478 158.947 237.596 163.088 230.773 164.298C229.424 164.538 228.075 164.655 226.74 164.655V164.657ZM201.361 139.739C201.367 139.768 201.371 139.796 201.375 139.825C204.055 155.059 217.153 165.514 230.568 163.134C237.055 161.983 242.65 158.036 246.331 152.019C250.023 145.979 251.342 138.582 250.042 131.189C250.036 131.161 250.031 131.132 250.025 131.102L201.361 139.737V139.739Z" fill="black"/>
<path d="M131.593 151.872L131.123 149.199C131.068 148.889 131.273 148.595 131.581 148.54L253.803 126.851C254.112 126.796 254.404 127.002 254.458 127.311L254.929 129.985C254.984 130.295 254.779 130.588 254.471 130.643L132.249 152.333C131.94 152.388 131.648 152.182 131.593 151.872Z" fill="#EE5421"/>
<path d="M133.121 152.742C132.642 152.742 132.176 152.595 131.774 152.314C131.259 151.951 130.914 151.409 130.804 150.786L130.751 150.49C130.526 149.205 131.382 147.974 132.663 147.748L252.517 126.478C253.14 126.368 253.763 126.507 254.278 126.869C254.793 127.232 255.138 127.774 255.248 128.398L255.3 128.693C255.526 129.979 254.67 131.21 253.389 131.436L133.535 152.705C133.397 152.73 133.257 152.742 133.119 152.742H133.121ZM131.965 150.58C132.019 150.892 132.192 151.163 132.45 151.344C132.707 151.526 133.02 151.595 133.33 151.54L253.184 130.27C253.823 130.156 254.254 129.541 254.14 128.899L254.087 128.603C254.032 128.292 253.86 128.021 253.602 127.839C253.345 127.658 253.032 127.589 252.722 127.644L132.867 148.913C132.228 149.027 131.798 149.643 131.912 150.285L131.965 150.58Z" fill="black"/>
</svg>
